<svg width="52" height="45" viewBox="0 0 52 45" fill="none" xmlns="http://www.w3.org/2000/svg">
<path fill-rule="evenodd" clip-rule="evenodd" d="M26.866 0.576904C26.4811 -0.0897633 25.5188 -0.0897614 25.1339 0.576905L20.7016 8.254H21.88H27.82C29.1445 8.254 30.4213 8.45052 31.6229 8.81614L26.866 0.576904ZM40.4179 24.0495C39.5562 27.3952 37.2189 30.3194 34.084 32.014L43.6073 44.0769H50.2487C51.0185 44.0769 51.4996 43.2436 51.1147 42.5769L40.4179 24.0495ZM33.4797 44.0769L25.174 33.634H21.88V44.0769H33.4797ZM13.24 44.0769V21.1779L0.885222 42.5769C0.500322 43.2436 0.981449 44.0769 1.75125 44.0769H13.24ZM27.82 16.354H21.88V26.074H27.82C30.196 26.074 32.14 23.968 32.14 21.214C32.14 18.46 30.196 16.354 27.82 16.354Z" fill="#01c38d"/>
</svg>
