<?xml version="1.0" standalone="no"?>
<!DOCTYPE svg PUBLIC "-//W3C//DTD SVG 20010904//EN"
 "http://www.w3.org/TR/2001/REC-SVG-20010904/DTD/svg10.dtd">
<svg version="1.0" xmlns="http://www.w3.org/2000/svg"
 width="260.000000pt" height="260.000000pt" viewBox="0 0 260.000000 260.000000"
 preserveAspectRatio="xMidYMid meet">
<metadata>
Created by potrace 1.14, written by Peter Selinger 2001-2017
</metadata>
<g transform="translate(0.000000,260.000000) scale(0.100000,-0.100000)"
fill="#000000" stroke="none">
<path d="M1273 2342 c-10 -6 -223 -358 -223 -368 0 -2 82 -4 183 -4 100 -1
214 -6 254 -13 64 -12 71 -11 63 3 -42 77 -225 377 -233 382 -7 4 -16 8 -22 8
-5 0 -15 -4 -22 -8z"/>
<path d="M1100 1366 l0 -226 162 0 c187 0 225 11 277 82 79 107 55 260 -53
336 -39 27 -42 27 -213 30 l-173 3 0 -225z"/>
<path d="M395 868 c-160 -270 -292 -503 -293 -517 -7 -48 9 -51 310 -51 l278
0 0 530 c0 292 -1 530 -2 530 -2 0 -133 -221 -293 -492z"/>
<path d="M1970 1207 c0 -31 -74 -159 -121 -211 -28 -31 -77 -73 -109 -95 l-60
-39 227 -281 227 -281 159 0 c90 0 167 4 178 10 10 6 19 21 19 35 0 24 -492
867 -510 873 -6 2 -10 -3 -10 -11z"/>
<path d="M1100 545 l0 -245 276 0 275 0 -23 29 c-13 16 -102 126 -198 245
l-175 216 -77 0 -78 0 0 -245z"/>
</g>
</svg>
